<?xml version="1.0" encoding="UTF-8" standalone="no"?><!DOCTYPE svg PUBLIC "-//W3C//DTD SVG 1.1//EN" "http://www.w3.org/Graphics/SVG/1.1/DTD/svg11.dtd"><svg width="100%" height="100%" viewBox="0 0 100 100" version="1.1" xmlns="http://www.w3.org/2000/svg" xmlns:xlink="http://www.w3.org/1999/xlink" xml:space="preserve" xmlns:serif="http://www.serif.com/" style="fill-rule:evenodd;clip-rule:evenodd;stroke-linejoin:round;stroke-miterlimit:2;"><g id="g245"><g><path id="path225" d="M69.527,44.193c-1.223,-2.916 -1.271,-4.053 -1.448,-8.149l-0.022,-0.496l0.003,-0.099c0.31,-6.431 2.792,-12.701 6.951,-17.598c4.573,-5.728 12.938,-9.041 22.947,-9.087l2.042,-0.012l0,82.459l-10.053,0c-4.528,-0.133 -4.801,-4.671 -4.934,-6.854c-0.015,-0.271 -0.037,-0.61 -0.067,-0.912c-0.794,0.023 -1.499,0.034 -2.171,0.034c-2.01,0 -3.679,-0.137 -5.954,-0.493c-2.763,-0.434 -5.691,-1.404 -6.489,-5.323c-0.465,-2.283 -0.011,-3.748 0.289,-4.718c0.07,-0.228 0.176,-0.576 0.169,-0.668c-0.029,-0.163 -0.055,-0.228 -0.055,-0.228c-0.037,-0.054 -0.081,-0.096 -0.126,-0.141c-0.794,-0.878 -1.303,-1.832 -1.495,-3.978c-0.758,-1.774 -0.521,-3.43 -0.344,-4.663c0.048,-0.344 0.119,-0.836 0.115,-1.099c-0.322,-0.153 -0.643,-0.226 -1.053,-0.317c-0.946,-0.21 -2.238,-0.5 -3.601,-1.912l-0.108,-0.122c-2.636,-3.195 0.2,-7.259 2.701,-10.85c1.03,-1.477 2.743,-3.931 2.703,-4.774Z" style="fill-rule:nonzero;"/><path id="path2251" serif:id="path225" d="M67.192,57.046c0.473,0.462 0.81,0.539 1.504,0.691c0.72,0.16 1.617,0.363 2.648,1.031l0.258,0.198c1.681,1.522 1.389,3.56 1.197,4.908c-0.159,1.111 -0.236,1.824 0.111,2.504l0.203,0.397l0.029,0.446c0.097,1.428 0.27,1.622 0.44,1.81c0.457,0.507 0.967,1.155 1.207,2.465c0.203,1.118 -0.074,2.011 -0.295,2.728c-0.236,0.767 -0.424,1.378 -0.185,2.569c0.199,0.989 0.458,1.614 3.117,2.03c2.083,0.325 3.531,0.447 5.345,0.447c0.897,0 1.864,-0.027 3.098,-0.065c2.906,0 3.106,3.298 3.202,4.882c0.17,2.831 0.469,2.896 0.96,2.911l5.899,0.008l0,-73.976c-7.782,0.439 -14.333,3.183 -17.82,7.55c-2.077,2.442 -5.599,7.628 -5.984,14.983l0.015,0.294c0.174,3.969 0.196,4.476 1.189,6.836c1.016,2.687 -1.034,5.625 -3.206,8.735c-0.93,1.332 -3.379,4.844 -2.932,5.618Z" style="fill:#ffc100;fill-rule:nonzero;"/><path id="path229" d="M77.068,44.151c0,4.114 5.971,4.114 5.971,0c0,-4.111 -5.971,-4.111 -5.971,0" style="fill-rule:nonzero;"/></g><g><path id="path233" d="M2.046,8.8c10.009,0.046 18.374,3.359 22.946,9.087c4.159,4.897 6.644,11.164 6.951,17.598l0.004,0.1l-0.022,0.495c-0.177,4.096 -0.229,5.229 -1.448,8.149c-0.041,0.843 1.673,3.301 2.699,4.774c2.501,3.588 5.341,7.656 2.701,10.85l-0.107,0.122c-1.364,1.412 -2.656,1.702 -3.602,1.912c-0.41,0.092 -0.73,0.165 -1.052,0.317c-0.007,0.264 0.063,0.752 0.115,1.099c0.176,1.233 0.413,2.889 -0.345,4.664c-0.192,2.145 -0.701,3.099 -1.495,3.977c-0.04,0.046 -0.084,0.088 -0.121,0.141c0,0 -0.027,0.065 -0.056,0.229c-0.008,0.091 0.103,0.439 0.17,0.668c0.299,0.969 0.754,2.434 0.287,4.717c-0.797,3.916 -3.726,4.889 -6.488,5.325c-2.275,0.354 -3.945,0.491 -5.954,0.491c-0.668,0 -1.374,-0.015 -2.172,-0.034c-0.029,0.302 -0.048,0.642 -0.066,0.912c-0.133,2.183 -0.406,6.721 -4.934,6.855l-10.053,0l-0.004,-82.459l2.046,0.011Z" style="fill-rule:nonzero;"/><path id="path2331" serif:id="path233" d="M4.07,87.042l5.894,0c0.492,-0.015 0.791,-0.076 0.961,-2.912c0.095,-1.583 0.295,-4.881 3.201,-4.881c1.234,0.034 2.198,0.065 3.099,0.065c1.814,0 3.261,-0.122 5.344,-0.447c2.659,-0.42 2.918,-1.045 3.117,-2.03c0.244,-1.195 0.055,-1.802 -0.185,-2.569c-0.221,-0.717 -0.498,-1.61 -0.295,-2.728c0.24,-1.31 0.746,-1.958 1.207,-2.465c0.171,-0.188 0.347,-0.383 0.444,-1.81l0.029,-0.446l0.203,-0.397c0.351,-0.684 0.27,-1.397 0.115,-2.504c-0.192,-1.348 -0.484,-3.386 1.197,-4.908l0.258,-0.198c1.03,-0.668 1.928,-0.871 2.652,-1.031c0.694,-0.156 1.03,-0.229 1.503,-0.691c0.446,-0.774 -2.001,-4.286 -2.933,-5.622c-2.168,-3.11 -4.217,-6.048 -3.202,-8.735c0.994,-2.356 1.016,-2.867 1.189,-6.835l0.016,-0.294c-0.384,-7.356 -3.908,-12.542 -5.983,-14.984c-3.483,-4.367 -10.042,-7.107 -17.82,-7.55l-0.011,73.972Z" style="fill:#0096ff;fill-rule:nonzero;"/><path id="path237" d="M16.963,44.187c0,4.114 5.967,4.114 5.967,0c0,-4.111 -5.967,-4.111 -5.967,0" style="fill-rule:nonzero;"/></g><path id="path241" d="M64.807,25.051l-6.216,0c0,6.746 -3.222,10.112 -6.349,13.37c-0.763,0.792 -1.549,1.601 -2.257,2.443c-0.711,-0.845 -1.468,-1.651 -2.231,-2.443c-3.127,-3.259 -6.349,-6.625 -6.349,-13.37l-6.215,0c0,9.39 4.709,14.31 8.154,17.897c2.042,2.128 3.293,3.48 3.533,4.94c-0.006,0.162 -0.026,0.329 -0.026,0.493l0,15.481l-6.455,-2.634c-0.218,-0.087 -0.472,0 -0.611,0.191c-0.072,0.094 -0.108,0.188 -0.108,0.302c0,0.114 0.036,0.232 0.108,0.329l9.775,13.121c0.097,0.131 0.237,0.218 0.4,0.218c0.158,0 0.298,-0.087 0.399,-0.218l9.775,-13.121c0.143,-0.191 0.139,-0.439 0,-0.631c-0.14,-0.195 -0.393,-0.282 -0.61,-0.191l-6.457,2.634l0,-15.427l0.082,0c0,-0.177 -0.017,-0.376 -0.026,-0.55c0.24,-1.46 1.491,-2.812 3.533,-4.94c3.445,-3.588 8.154,-8.507 8.154,-17.897l-0.003,0.003Z" style="fill-rule:nonzero;"/><path id="path2411" serif:id="path241" d="M54.066,86.485c0,-2.322 -1.819,-4.228 -4.066,-4.228c-2.248,0 -4.066,1.906 -4.066,4.228c0,2.323 1.818,4.202 4.066,4.202c2.247,0 4.066,-1.879 4.066,-4.202Z" style="fill:#ef7523;fill-rule:nonzero;stroke:#000;stroke-width:1px;"/><path id="path2412" serif:id="path241" d="M65.874,13.978c0,-2.322 -1.845,-4.228 -4.092,-4.228c-2.247,0 -4.065,1.906 -4.065,4.228c0,2.322 1.818,4.202 4.065,4.202c2.247,0 4.092,-1.88 4.092,-4.202Z" style="fill:#82abee;fill-rule:nonzero;stroke:#000;stroke-width:1px;"/><path id="path2413" serif:id="path241" d="M42.284,13.978c0,-2.322 -1.819,-4.228 -4.066,-4.228c-2.247,0 -4.092,1.906 -4.092,4.228c0,2.322 1.845,4.202 4.092,4.202c2.247,0 4.066,-1.88 4.066,-4.202Z" style="fill:#bee172;fill-rule:nonzero;stroke:#000;stroke-width:1px;"/></g></svg>