<svg xmlns="http://www.w3.org/2000/svg" xml:space="preserve" style="enable-background:new 0 0 1080 1080" viewBox="0 0 1080 1080"><path d="M1059.3 93.4c-108.4.5-199 36.4-248.5 98.4-45 53-71.9 120.9-75.3 190.6v1.1l.2 5.4c1.9 44.4 2.4 56.7 15.7 88.2.4 9.1-18.1 35.7-29.3 51.7-27.1 38.9-57.8 82.9-29.2 117.5l1.2 1.3c14.8 15.3 28.8 18.4 39 20.7 4.4 1 7.9 1.8 11.4 3.4 0 2.8-.7 8.2-1.2 11.9-1.9 13.4-4.5 31.3 3.7 50.5 2.1 23.2 7.6 33.6 16.2 43.1.5.5 1 .9 1.4 1.5 0 0 .3.7.6 2.5.1 1-1.1 4.8-1.8 7.2-3.2 10.5-8.2 26.4-3.1 51.1 8.6 42.4 40.3 52.9 70.3 57.6 24.6 3.9 42.7 5.3 64.5 5.3 7.3 0 14.9-.1 23.5-.4.3 3.3.6 6.9.7 9.9 1.4 23.6 4.4 72.8 53.4 74.2h108.9V93.3l-22.3.1zm-21.9 847.3-63.9-.1c-5.3-.2-8.6-.9-10.4-31.5-1-17.2-3.2-52.9-34.7-52.9-13.4.4-23.8.7-33.5.7-19.6 0-35.3-1.3-57.9-4.8-28.8-4.5-31.6-11.3-33.8-22-2.6-12.9-.6-19.5 2-27.8 2.4-7.8 5.4-17.4 3.2-29.5-2.6-14.2-8.1-21.2-13.1-26.7-1.8-2-3.7-4.1-4.8-19.6l-.3-4.8-2.2-4.3c-3.8-7.4-2.9-15.1-1.2-27.1 2.1-14.6 5.2-36.7-13-53.1l-2.8-2.1c-11.2-7.2-20.9-9.4-28.7-11.2-7.5-1.6-11.2-2.5-16.3-7.5-4.8-8.4 21.7-46.4 31.8-60.8 23.5-33.7 45.7-65.5 34.7-94.6-10.8-25.6-11-31-12.9-74l-.2-3.2c4.2-79.6 42.3-135.8 64.8-162.3 37.8-47.3 108.7-77 193-81.8v801z"/><path d="M833.1 476.6c0 44.6 64.7 44.6 64.7 0 0-44.5-64.7-44.5-64.7 0M357.8 529.1c-11.1-16-29.7-42.6-29.2-51.7 13.2-31.6 13.8-43.9 15.7-88.2l.2-5.4v-1.1c-3.3-69.7-30.2-137.5-75.3-190.6-49.5-62-140.1-97.9-248.5-98.4l-22.2-.1v892.9h108.9c49-1.5 52-50.6 53.4-74.2.2-2.9.4-6.6.7-9.9 8.6.2 16.3.4 23.5.4 21.8 0 39.8-1.5 64.5-5.3 29.9-4.7 61.6-15.3 70.3-57.7 5.1-24.7.1-40.6-3.1-51.1-.7-2.5-1.9-6.2-1.8-7.2.3-1.8.6-2.5.6-2.5.4-.6.9-1 1.3-1.5 8.6-9.5 14.1-19.8 16.2-43.1 8.2-19.2 5.6-37.2 3.7-50.5-.6-3.8-1.3-9-1.2-11.9 3.5-1.6 7-2.4 11.4-3.4 10.2-2.3 24.2-5.4 39-20.7l1.2-1.3c28.6-34.5-2.2-78.6-29.3-117.5zm-3.9 87.6c-5.1 5-8.8 5.8-16.3 7.5-7.8 1.7-17.6 3.9-28.7 11.2l-2.8 2.1c-18.2 16.5-15 38.6-13 53.1 1.7 12 2.6 19.7-1.2 27.1l-2.2 4.3-.3 4.8c-1.1 15.5-3 17.6-4.8 19.6-5 5.5-10.5 12.5-13.1 26.7-2.2 12.1.8 21.8 3.2 29.5 2.6 8.3 4.6 14.9 2 27.8-2.2 10.7-5 17.4-33.8 22-22.6 3.5-38.2 4.8-57.9 4.8-9.8 0-20.2-.3-33.6-.7-31.5 0-33.6 35.7-34.7 52.9-1.8 30.7-5.1 31.4-10.4 31.5H42.6l.1-801c84.2 4.8 155.3 34.5 193 81.8 22.5 26.4 60.6 82.6 64.8 162.3l-.2 3.2c-1.9 43-2.1 48.5-12.9 74-11 29.1 11.2 60.9 34.7 94.6 10.1 14.5 36.6 52.5 31.8 60.9z"/><path d="M182.2 477c0 44.6 64.6 44.6 64.6 0 .1-44.5-64.6-44.5-64.6 0M700.3 258.6H633c0 73.1-34.9 120.7-68.8 156-8.3 8.6-16.8 17.3-24.4 26.5-7.7-9.2-15.9-17.9-24.2-26.5-33.9-35.3-68.8-82.9-68.8-156h-67.3c0 101.7 51 166.1 88.3 205 22.1 23 35.7 37.7 38.3 53.5-.1 1.8-.3 3.6-.3 5.3v197.1L436 691c-2.4-.9-5.1 0-6.6 2.1-.8 1-1.2 2-1.2 3.3s.4 2.5 1.2 3.6l105.8 142c1.1 1.4 2.6 2.4 4.3 2.4 1.7 0 3.2-.9 4.3-2.4l105.9-142.1c1.5-2.1 1.5-4.8 0-6.8-1.5-2.1-4.3-3.1-6.6-2.1l-69.9 28.5V523h.9c0-1.9-.2-4.1-.3-6 2.6-15.8 16.1-30.5 38.3-53.5 37.3-38.8 88.3-103.3 88.2-204.9zM593.2 953.4c0-30.4-23.8-55.3-53.2-55.3-29.4 0-53.2 24.9-53.2 55.3s23.8 55 53.2 55c29.4-.1 53.2-24.6 53.2-55zM722.2 134.6c0-31-24.6-56.4-54.6-56.4s-54.3 25.4-54.3 56.4 24.3 56.1 54.3 56.1c29.9 0 54.6-25.1 54.6-56.1zM466.7 134.6c0-31-24.3-56.4-54.3-56.4-30 0-54.6 25.4-54.6 56.4s24.6 56.1 54.6 56.1 54.3-25.1 54.3-56.1z"/></svg>